# xmcd CD database file
#
# Track frame offsets:
#	150
#	12590
#	25990
#	39275
#	53732
#	67375
#	79312
#	95385
#	106145
#	117617
#	130957
#	142110
#	153742
#	166027
#	184890
#	197890
#	210375
#	225002
#	238667
#	252202
#	263582
#	278132
#	293942
#	305610
#	322222
#
# Disc length: 4467 seconds
#
# Revision: 2
# Processed by: cddbd v1.5.1PL2 Copyright (c) Steve Scherf et al.
# Submitted via: CDex 1.51
#
DISCID=70117119
DTITLE=George Morgan - George Morgan meets "Little" Roy Wiggins
DYEAR=1900
DGENRE=Country
TTITLE0=George Morgan - Mr. Ting-a-ling steel guitar man
TTITLE1=George Morgan - Makin' heartaches
TTITLE2=George Morgan - Red rose of the blue side of town
TTITLE3=George Morgan - I'm in love with you
TTITLE4=George Morgan - I never knew love until I met you
TTITLE5=George Morgan - Before ou
TTITLE6=George Morgan - The pawn shop
TTITLE7=George Morgan - One wife, five kids later
TTITLE8=George Morgan - I'll always be blue
TTITLE9=George Morgan - My true love is Ruby
TTITLE10=George Morgan - My woman here at home
TTITLE11=George Morgan - Soft, sweet, warm, wonderful you
TTITLE12=George Morgan - A candy mountain melod
TTITLE13=George Morgan - Please, mommy please
TTITLE14=George Morgan - Somewhere around midningt
TTITLE15=George Morgan - In the misty moonlight
TTITLE16=George Morgan - I just want you to know
TTITLE17=George Morgan - You turn me on
TTITLE18=George Morgan - You're that much woman to me
TTITLE19=George Morgan - Sing my blues a birthday song
TTITLE20=George Morgan - Hello pretty lady
TTITLE21=George Morgan - Gentle rains at home
TTITLE22=George Morgan - Our wedding song
TTITLE23=George Morgan/Lorrie Morgan - From this moment on
TTITLE24=George Morgan/Lorrie Morgan - I'm completely satisfied with you
EXTD=
EXTT0=
EXTT1=
EXTT2=
EXTT3=
EXTT4=
EXTT5=
EXTT6=
EXTT7=
EXTT8=
EXTT9=
EXTT10=
EXTT11=
EXTT12=
EXTT13=
EXTT14=
EXTT15=
EXTT16=
EXTT17=
EXTT18=
EXTT19=
EXTT20=
EXTT21=
EXTT22=
EXTT23=
EXTT24=
PLAYORDER=
